<svg version="1.1" id="Capa_1" xmlns="http://www.w3.org/2000/svg" xmlns:xlink="http://www.w3.org/1999/xlink" x="0px" y="0px"
	 viewBox="0 0 206.003 206.003" style="enable-background:new 0 0 206.003 206.003;" xml:space="preserve">
<g>
	<g>
		<path d="M103.002,206.003c-1.102,0-2.203-0.303-3.175-0.909C43.867,170.2,22.4,126.118,14.246,95.282
			C5.527,62.313,9.67,37.499,10.002,35.636l0.096-0.596c0.46-2.875,2.918-5.004,5.829-5.05c0.301-0.007,32.023-0.993,58.541-28.18
			c1.803-1.848,4.586-2.336,6.91-1.211c6.77,3.277,14.045,4.938,21.624,4.938s14.854-1.662,21.624-4.938
			c2.325-1.125,5.107-0.637,6.91,1.211c26.688,27.362,58.226,28.175,58.541,28.18c2.911,0.046,5.369,2.175,5.829,5.05l0.096,0.596
			c0.333,1.863,4.475,26.677-4.244,59.646c-8.154,30.836-29.621,74.918-85.581,109.813
			C105.205,205.7,104.103,206.003,103.002,206.003z M21.328,41.569c-0.8,7.938-1.717,27.418,4.667,51.203
			c10.871,40.5,36.77,74.169,77.005,100.126c50.261-32.47,69.711-72.531,77.156-100.684c6.254-23.649,5.334-42.796,4.528-50.644
			c-10.673-1.301-35.839-6.633-58.756-28.433c-7.276,2.922-14.969,4.401-22.927,4.401S87.35,16.06,80.074,13.137
			C57.165,34.93,32.007,40.265,21.328,41.569z"/>
	</g>
	<g>
		<path d="M103.002,168.796c-1.102,0-2.203-0.303-3.175-0.909c-35.771-22.305-49.492-51.723-54.705-72.474
			c-5.662-22.54-2.809-39.755-2.685-40.477l0.055-0.343c0.46-2.875,2.918-5.004,5.829-5.05c0.165-0.004,19.228-0.662,35.174-17.011
			c1.803-1.848,4.586-2.336,6.91-1.211c3.943,1.909,8.181,2.876,12.597,2.876s8.654-0.968,12.597-2.876
			c2.325-1.125,5.107-0.637,6.91,1.211c15.946,16.349,35.01,17.006,35.201,17.011c2.891,0.071,5.346,2.195,5.803,5.05l0.066,0.412
			c0.113,0.653,2.965,17.868-2.696,40.408c-5.212,20.751-18.935,50.169-54.705,72.474
			C105.205,168.493,104.103,168.796,103.002,168.796z M53.843,60.998c-0.428,5.966-0.575,17.884,3.046,31.998
			c6.598,25.72,22.105,46.789,46.113,62.67c24.007-15.881,39.515-36.95,46.113-62.67c3.625-14.129,3.474-26.057,3.047-31.998
			c-7.563-1.195-21.931-5.014-35.276-17.213c-4.433,1.603-9.086,2.413-13.884,2.413c-4.798,0-9.451-0.81-13.884-2.413
			C75.773,55.983,61.406,59.802,53.843,60.998z"/>
	</g>
	<polygon points="103.002,62.686 109.126,81.534 128.944,81.534 112.911,93.183 119.035,112.031 103.002,100.382 86.969,112.031 
		93.093,93.183 77.06,81.534 96.878,81.534 	"/>
</g>
</svg>
